Coordinates
version=1
nRows=38
nColumns=12
inDegrees=yes

Units are S.I. units (second, meters, Newtons, ...)
Angles are in degrees

endheader
time	SC_y	SC_z	SC_x	AC_y	AC_z	AC_x	GH_y	GH_z	GH_yy	EL_x	PS_y
       0.0               -55.0          13.42           49.5          68.72          1.135          1.504         -8.772          74.54          143.3          44.12          112.5
   0.04407               -55.0          13.42          49.49          68.72          1.136          1.504         -8.764          74.54          143.3          44.13          112.5
   0.08814               -55.0          13.42          49.49          68.72          1.137          1.504         -8.755          74.54          143.3          44.14          112.5
    0.1322               -55.0          13.41          49.49          68.72          1.139          1.503         -8.746          74.53          143.3          44.15          112.4
    0.1763               -55.0          13.41          49.48          68.72           1.14          1.503         -8.737          74.53          143.3          44.16          112.4
    0.2203              -54.99          13.41          49.48          68.71          1.141          1.503         -8.727          74.53          143.3          44.17          112.4
    0.2644              -54.99           13.4          49.47          68.71          1.143          1.502         -8.716          74.53          143.3          44.19          112.4
    0.3085              -54.99           13.4          49.47          68.71          1.144          1.502         -8.704          74.52          143.3           44.2          112.4
    0.3526              -54.99           13.4          49.46          68.71          1.146          1.502         -8.692          74.52          143.3          44.21          112.3
    0.3966              -54.98          13.39          49.45           68.7          1.147          1.501         -8.678          74.52          143.3          44.23          112.3
    0.4407              -54.98          13.39          49.45           68.7          1.149          1.501         -8.664          74.52          143.3          44.24          112.3
    0.4848              -54.98          13.39          49.44           68.7          1.151            1.5         -8.649          74.51          143.3          44.26          112.3
    0.5288              -54.97          13.38          49.43           68.7          1.153            1.5         -8.632          74.51          143.3          44.28          112.2
    0.5729              -54.97          13.38          49.42          68.69          1.156          1.499         -8.614          74.51          143.3           44.3          112.2
     0.617              -54.96          13.37          49.41          68.69          1.158          1.499         -8.595           74.5          143.3          44.32          112.2
     0.661              -54.96          13.36           49.4          68.68          1.161          1.498         -8.574           74.5          143.3          44.34          112.1
    0.7051              -54.95          13.36          49.39          68.68          1.164          1.498         -8.551          74.49          143.3          44.37          112.1
    0.7492              -54.95          13.35          49.38          68.67          1.167          1.497         -8.526          74.49          143.3           44.4          112.1
    0.7933              -54.94          13.34          49.37          68.67          1.171          1.496         -8.498          74.48          143.3          44.43          112.0
    0.8373              -54.93          13.33          49.35          68.66          1.175          1.495         -8.469          74.48          143.3          44.46          112.0
    0.8814              -54.93          13.32          49.33          68.66          1.179          1.494         -8.436          74.47          143.3           44.5          111.9
    0.9255              -54.92          13.31          49.32          68.65          1.184          1.493           -8.4          74.46          143.3          44.54          111.9
    0.9695              -54.91           13.3           49.3          68.64          1.189          1.492          -8.36          74.45          143.3          44.58          111.8
     1.014               -54.9          13.29          49.28          68.63          1.195          1.491         -8.316          74.44          143.3          44.63          111.7
     1.058              -54.89          13.28          49.25          68.62          1.201          1.489         -8.267          74.43          143.3          44.69          111.6
     1.102              -54.87          13.26          49.23          68.61          1.208          1.488         -8.212          74.42          143.3          44.75          111.5
     1.146              -54.86          13.24           49.2           68.6          1.216          1.486         -8.151          74.41          143.3          44.82          111.4
      1.19              -54.85          13.22          49.16          68.59          1.225          1.484         -8.082           74.4          143.3           44.9          111.3
     1.234              -54.83           13.2          49.12          68.57          1.235          1.481         -8.004          74.38          143.3          44.98          111.2
     1.278              -54.81          13.17          49.08          68.56          1.247          1.479         -7.915          74.36          143.3          45.08          111.0
     1.322              -54.78          13.15          49.03          68.54           1.26          1.476         -7.814          74.34          143.3           45.2          110.9
     1.366              -54.76          13.11          48.97          68.51          1.275          1.472         -7.698          74.32          143.2          45.33          110.7
      1.41              -54.73          13.07          48.91          68.49          1.293          1.468         -7.564          74.29          143.2          45.48          110.5
     1.454              -54.69          13.03          48.83          68.46          1.313          1.464         -7.409          74.26          143.2          45.65          110.2
     1.498              -54.65          12.98          48.74          68.42          1.337          1.459         -7.227          74.22          143.2          45.86          109.9
     1.542               -54.6          12.92          48.64          68.38          1.365          1.452         -7.012          74.18          143.2           46.1          109.5
     1.587              -54.54          12.84          48.52          68.33          1.398          1.445         -6.757          74.12          143.2          46.38          109.1
     1.631              -54.47          12.75          48.37          68.27          1.438          1.436         -6.451          74.06          143.2          46.73          108.6
